<?xml version="1.0" encoding="utf-8"?>
<!-- Generator: Adobe Illustrator 17.0.0, SVG Export Plug-In . SVG Version: 6.00 Build 0)  -->
<!DOCTYPE svg PUBLIC "-//W3C//DTD SVG 1.1//EN" "http://www.w3.org/Graphics/SVG/1.1/DTD/svg11.dtd">
<svg version="1.1" id="Livello_1" xmlns="http://www.w3.org/2000/svg" xmlns:xlink="http://www.w3.org/1999/xlink" x="0px" y="0px"
	 width="105px" height="17px" viewBox="0 0 105 17" enable-background="new 0 0 105 17" xml:space="preserve">
<g>
	<path stroke="#000000" stroke-width="0.6" stroke-miterlimit="10" d="M15.906,2.496l0.918,12.423h-2.863l-0.486-8.462h-0.036
		l-2.665,8.462H8.469L5.787,6.458H5.732l-0.45,8.462H2.419L3.356,2.496h3.673l2.593,8.174h0.036l2.557-8.174H15.906z"/>
	<path stroke="#000000" stroke-width="0.6" stroke-miterlimit="10" d="M30.42,8.708c0,1.962-0.63,3.511-1.873,4.682
		c-1.242,1.152-2.827,1.729-4.717,1.729s-3.475-0.576-4.718-1.729c-1.242-1.171-1.872-2.72-1.872-4.682
		c0-1.962,0.63-3.511,1.872-4.682c1.243-1.17,2.827-1.746,4.718-1.746s3.475,0.576,4.717,1.746C29.79,5.197,30.42,6.745,30.42,8.708
		z M27.467,8.636c0-1.17-0.342-2.106-1.026-2.809c-0.685-0.702-1.549-1.062-2.611-1.062c-1.062,0-1.927,0.36-2.611,1.062
		s-1.026,1.639-1.026,2.809s0.342,2.106,1.026,2.827c0.684,0.702,1.548,1.062,2.611,1.062c1.062,0,1.926-0.36,2.611-1.062
		C27.125,10.742,27.467,9.805,27.467,8.636z"/>
	<path stroke="#000000" stroke-width="0.6" stroke-miterlimit="10" d="M40.81,8.698c0,1.962-0.63,3.511-1.873,4.682
		c-1.242,1.152-2.827,1.729-4.717,1.729s-3.475-0.576-4.717-1.729c-1.243-1.171-1.873-2.72-1.873-4.682
		c0-1.962,0.63-3.511,1.873-4.682c1.242-1.17,2.827-1.746,4.717-1.746s3.475,0.576,4.717,1.746C40.18,5.187,40.81,6.736,40.81,8.698
		z M37.858,8.626c0-1.17-0.342-2.106-1.026-2.809c-0.685-0.702-1.549-1.062-2.611-1.062c-1.062,0-1.927,0.36-2.611,1.062
		s-1.026,1.639-1.026,2.809s0.342,2.106,1.026,2.827c0.684,0.702,1.548,1.062,2.611,1.062c1.062,0,1.926-0.36,2.611-1.062
		C37.515,10.732,37.858,9.796,37.858,8.626z"/>
	<path stroke="#000000" stroke-width="0.6" stroke-miterlimit="10" d="M62.203,14.092c-0.738,0.54-1.8,0.81-3.187,0.81h-5.077V2.478
		h4.23c1.369,0,2.396,0.18,3.062,0.522c1.062,0.558,1.584,1.422,1.584,2.611c0,1.296-0.81,2.395-1.818,2.736v0.036
		c1.585,0.378,2.575,1.458,2.575,2.953C63.572,12.507,63.122,13.425,62.203,14.092z M59.34,4.89
		c-0.271-0.162-0.702-0.252-1.297-0.252h-1.206v2.863h1.135c0.647,0,1.098-0.09,1.368-0.27c0.414-0.288,0.612-0.684,0.612-1.188
		C59.953,5.521,59.754,5.125,59.34,4.89z M59.989,9.86c-0.324-0.234-0.847-0.343-1.549-0.343h-1.603v3.169h1.603
		c0.702,0,1.225-0.107,1.549-0.342c0.414-0.27,0.63-0.684,0.63-1.242C60.619,10.58,60.403,10.166,59.989,9.86z"/>
	<path stroke="#000000" stroke-width="0.6" stroke-miterlimit="10" d="M101.663,2.473l0.918,12.423h-2.862l-0.486-8.462h-0.036
		l-2.665,8.462h-2.305l-2.683-8.462H91.49l-0.45,8.462h-2.863l0.937-12.423h3.673l2.593,8.174h0.036l2.557-8.174H101.663z"/>
</g>
<g>
	<path fill="#F1F2F2" stroke="#000000" stroke-width="0.6" stroke-miterlimit="10" d="M50.289,5.287
		c0.63,0.306,1.026,0.594,1.207,0.828l0.9-2.413c-0.288-0.306-0.792-0.612-1.53-0.918c-0.363-0.163-0.776-0.285-1.237-0.366
		l-0.86,2.428C49.296,4.903,49.804,5.051,50.289,5.287z"/>
	<path fill="#F1F2F2" stroke="#000000" stroke-width="0.6" stroke-miterlimit="10" d="M51.64,11.156
		c-0.708,0.738-1.616,1.143-2.701,1.261l0.886,2.502c1.105-0.246,2.045-0.728,2.788-1.495L51.64,11.156z"/>
	<path stroke="#000000" stroke-width="0.6" stroke-miterlimit="10" d="M48.29,12.471c-1.062,0-1.944-0.342-2.665-1.026
		c-0.702-0.684-1.062-1.62-1.062-2.791c0-1.188,0.342-2.125,1.044-2.809s1.603-1.026,2.683-1.026c0.161,0,0.32,0.011,0.478,0.028
		l0.86-2.428c-0.454-0.08-0.954-0.12-1.499-0.12c-1.854,0-3.421,0.576-4.663,1.747c-1.243,1.152-1.855,2.701-1.855,4.664
		c0,1.962,0.612,3.511,1.855,4.682c1.242,1.152,2.791,1.729,4.663,1.729c0.612,0,1.167-0.081,1.696-0.198l-0.886-2.502
		C48.726,12.441,48.517,12.471,48.29,12.471z"/>
</g>
<path stroke="#000000" stroke-width="0.6" stroke-miterlimit="10" d="M77.399,8.721c0,1.962-0.63,3.511-1.873,4.682
	c-1.242,1.152-2.827,1.729-4.717,1.729s-3.475-0.576-4.718-1.729c-1.242-1.171-1.872-2.72-1.872-4.682
	c0-1.962,0.63-3.511,1.872-4.682c1.243-1.17,2.827-1.746,4.718-1.746s3.475,0.576,4.717,1.746
	C76.769,5.21,77.399,6.759,77.399,8.721z M74.446,8.649c0-1.17-0.342-2.106-1.026-2.809c-0.685-0.702-1.549-1.062-2.611-1.062
	c-1.062,0-1.927,0.36-2.611,1.062s-1.026,1.639-1.026,2.809s0.342,2.106,1.026,2.827c0.684,0.702,1.548,1.062,2.611,1.062
	c1.062,0,1.926-0.36,2.611-1.062C74.104,10.756,74.446,9.819,74.446,8.649z"/>
<path stroke="#000000" stroke-width="0.6" stroke-miterlimit="10" d="M87.789,8.712c0,1.962-0.63,3.511-1.873,4.682
	c-1.242,1.152-2.827,1.729-4.717,1.729s-3.475-0.576-4.717-1.729c-1.243-1.171-1.873-2.72-1.873-4.682
	c0-1.962,0.63-3.511,1.873-4.682c1.242-1.17,2.827-1.746,4.717-1.746s3.475,0.576,4.717,1.746
	C87.159,5.201,87.789,6.749,87.789,8.712z M84.837,8.64c0-1.17-0.342-2.106-1.026-2.809c-0.685-0.702-1.549-1.062-2.611-1.062
	c-1.062,0-1.927,0.36-2.611,1.062S77.562,7.47,77.562,8.64s0.342,2.106,1.026,2.827c0.684,0.702,1.548,1.062,2.611,1.062
	c1.062,0,1.926-0.36,2.611-1.062C84.495,10.746,84.837,9.81,84.837,8.64z"/>
</svg>
